<svg viewBox="0 0 512 512" version="1.1" xmlns="http://www.w3.org/2000/svg">
    <view id="windows" viewBox="0 0 512 512" />
    <view id="meta" viewBox="0 0 512 512" />
    <path transform="translate(0,0)" d="M 455.10976,58.050811 237.37658,86.90736 v 160.20973 l 217.73318,-1.51724 z M 219.08716,89.327525 56.89024,110.82462 v 137.54997 l 162.19692,-1.12968 z M 56.89024,263.62951 v 137.54587 l 162.19692,21.49708 V 264.75921 Z m 180.48634,1.25752 v 160.20561 l 217.73318,28.85655 V 266.40427 Z" />
    <view id="shift" viewBox="512 0 512 512" />
    <path transform="translate(512,0)" d="m 256,48 -232,232 128,-0.002 v 192 h 208 v -192 L 488,280 Z m 0,67.88477 L 372.11719,232.00195 312,232 V 424 H 200 V 232 l -60.11523,0.002 z" />
    <view id="ctrl" viewBox="1024 0 512 512" />
    <path transform="translate(1024,0)" d="m256 126.06-208.97 208.97 33.941 33.941 175.03-175.03 175.03 175.03 33.941-33.941z" color="#000000" style="-inkscape-stroke:none" />
    <view id="cmd" viewBox="1536 0 512 512" />
    <path transform="translate(1536,0)" d="m128 32c-52.735 0-96 43.265-96 96 0 52.735 43.265 96 96 96h48v64h-48c-52.735 0-96 43.265-96 96s43.265 96 96 96c52.735 0 96-43.265 96-96v-48h64v48c0 52.735 43.265 96 96 96s96-43.265 96-96-43.265-96-96-96h-48v-64h48c52.735 0 96-43.265 96-96 0-52.735-43.265-96-96-96s-96 43.265-96 96v48h-64v-48c0-52.735-43.265-96-96-96zm0 48c26.794 0 48 21.206 48 48v48h-48c-26.794 0-48-21.206-48-48s21.206-48 48-48zm256 0c26.794 0 48 21.206 48 48s-21.206 48-48 48h-48v-48c0-26.794 21.206-48 48-48zm-160 144h64v64h-64zm-96 112h48v48c0 26.794-21.206 48-48 48s-48-21.206-48-48 21.206-48 48-48zm208 0h48c26.794 0 48 21.206 48 48s-21.206 48-48 48-48-21.206-48-48z" />
    <view id="alt" viewBox="2048 0 512 512" />
    <path transform="translate(2048,0)" d="m 24,96 v 48 h 131.15625 l 176,264 H 488 V 360 H 356.84375 l -176,-264 z m 320,0 v 48 H 488 V 96 Z" />
</svg>