<svg width="512" height="512" viewBox="0 0 512 512"  xmlns="http://www.w3.org/2000/svg">
    <symbol id="cmd" viewBox="0 0 512 512">
        <path d="m128 32c-52.735 0-96 43.265-96 96 0 52.735 43.265 96 96 96h48v64h-48c-52.735 0-96 43.265-96 96s43.265 96 96 96c52.735 0 96-43.265 96-96v-48h64v48c0 52.735 43.265 96 96 96s96-43.265 96-96-43.265-96-96-96h-48v-64h48c52.735 0 96-43.265 96-96 0-52.735-43.265-96-96-96s-96 43.265-96 96v48h-64v-48c0-52.735-43.265-96-96-96zm0 48c26.794 0 48 21.206 48 48v48h-48c-26.794 0-48-21.206-48-48s21.206-48 48-48zm256 0c26.794 0 48 21.206 48 48s-21.206 48-48 48h-48v-48c0-26.794 21.206-48 48-48zm-160 144h64v64h-64zm-96 112h48v48c0 26.794-21.206 48-48 48s-48-21.206-48-48 21.206-48 48-48zm208 0h48c26.794 0 48 21.206 48 48s-21.206 48-48 48-48-21.206-48-48z"/>
    </symbol>
    <use id="cmd2" href="#cmd" width="256" height="256" />
<use href="#cmd" width="51" height="51"/>
<use href="touches.svg#cmd2" width="512" height="512"/>
</svg>